<svg xmlns="http://www.w3.org/2000/svg" width="199.937" height="199.976" viewBox="0 0 199.937 199.976"><g transform="translate(-50.031 -50.012)"><path d="M237.375,62.573A42.712,42.712,0,0,0,183.5,57.14l-.043-.007a17.814,17.814,0,0,0-14.8,5.122l-4.06,4a17.772,17.772,0,0,0-5.247,12.617,5.414,5.414,0,0,0,.062,1l-79.451,79.7a17.511,17.511,0,0,0-13.616,5.122l-4.06,4.059a17.666,17.666,0,0,0-5.247,12.617c0,.75.062,1.5.125,2.186,0,.012,0,.023.006.035a42.767,42.767,0,0,0,59.328,59.242h.067c.687.062,1.436.124,2.186.124a17.784,17.784,0,0,0,12.617-5.247l4.06-4a17.712,17.712,0,0,0,5.184-12.617,5.425,5.425,0,0,0-.062-1l79.514-79.7a5.408,5.408,0,0,0,1,.062,17.985,17.985,0,0,0,12.617-5.184l4.06-4.06a17.607,17.607,0,0,0,5.184-12.617c0-.747-.062-1.5-.125-2.18a42.514,42.514,0,0,0-5.416-53.841Zm-8.826,8.845a30.092,30.092,0,0,1,6.759,32.571l-.011-.01a17.816,17.816,0,0,0-22.231,1.557l-18.728-18.69a17.657,17.657,0,0,0,4.731-12.036,17.332,17.332,0,0,0-3.216-10.128,30.245,30.245,0,0,1,32.7,6.736Zm-55.152,3.7,4.06-4.059a5.341,5.341,0,0,1,9.119,3.747,5.239,5.239,0,0,1-1.562,3.748l-4.06,4.06a5.341,5.341,0,0,1-9.12-3.747,5.247,5.247,0,0,1,1.563-3.749Zm-52.655,61.212v67.083a17.031,17.031,0,0,0-9.988,4.617l-18.693-18.66.011-.011a17.9,17.9,0,0,0,4.685-12.055,17.584,17.584,0,0,0-4.809-12.117ZM71.085,177.621l4.06-4.06A5.1,5.1,0,0,1,78.893,172a5.338,5.338,0,0,1,3.81,1.562,5.278,5.278,0,0,1,0,7.5l-4.06,4.06a5.341,5.341,0,0,1-9.12-3.748A5.245,5.245,0,0,1,71.085,177.621Zm.35,50.932a30.142,30.142,0,0,1-6.74-32.6,17.649,17.649,0,0,0,10.2,3.221,16.517,16.517,0,0,0,7.5-1.748h.044l20.18,20.144a17.992,17.992,0,0,0,1.45,17.707c.009.012.02.021.028.034a30.255,30.255,0,0,1-32.657-6.754Zm55.116-3.711-4,4.06a5.338,5.338,0,0,1-3.81,1.562A5.2,5.2,0,0,1,115,228.9a5.351,5.351,0,0,1-1.562-3.748A5.241,5.241,0,0,1,115,221.406l4-4.06a5.338,5.338,0,0,1,3.81-1.562,5.1,5.1,0,0,1,3.748,1.562,5.349,5.349,0,0,1,1.562,3.748A5.248,5.248,0,0,1,126.551,224.842Zm17.614-111.993,11.68-11.68v85.884l-11.68,11.68Zm35.1,50.718V96.546a17.4,17.4,0,0,0,5.48-1.616l20.259,20.219-.006.011a16.321,16.321,0,0,0-1.749,7.5A17.526,17.526,0,0,0,208,134.773Zm49.594-41.161-4,4a5.334,5.334,0,0,1-7.558,0,5.278,5.278,0,0,1,0-7.5l4.06-4.06a5.316,5.316,0,0,1,7.495,0,5.355,5.355,0,0,1,0,7.559Z" fill="#fff"/></g></svg>